A couple on the verge of a nasty divorce attempt to sell their empty love nest and move on with their lives, separately. After a successful open house they are horrified to discover, days later, that a potential buyer didn't leave their home. While Alice is being held captive in the basement, the unannounced house guest moves in upstairs. She senses her capture is being kept a rebellious secret. She knows her way only way out if she can only get out alive.

General
Format                           : Matroska
File size                        : 4.36 GiB
Duration                         : 1h 26mn
Overall bit rate                 : 7 176 Kbps
Encoded date                     : UTC 2010-07-01 04:27:33
Writing application              : mkvmerge v3.2.0 ('Beginnings') 编译于 Feb 12 2010 16:46:17
Writing library                  : libebml v0.7.9 + libmatroska v0.8.1

Video
ID                               : 1
Format                           : AVC
Format/Info                      : Advanced Video Codec
Format profile                   : High@L4.1
Format settings, CABAC           : Yes
Format settings, ReFrames        : 8 frames
Muxing mode                      : Container profile=Unknown@4.1
Codec ID                         : V_MPEG4/ISO/AVC
Duration                         : 1h 26mn
Bit rate                         : 5 663 Kbps
Width                            : 1 280 pixels
Height                           : 544 pixels
Display aspect ratio             : 2.35:1
Frame rate                       : 23.976 fps
Color space                      : YUV
Chroma subsampling               : 4:2:0
Bit depth                        : 8 bits
Scan type                        : Progressive
Bits/(Pixel*Frame)               : 0.339
Stream size                      : 3.35 GiB (77%)
Title                            : Open House 2010 Bluray 720p DTS x264 CHD
Writing library                  : x264 core 84 r1416 fcf70c2

Audio
ID                               : 2
Format                           : DTS
Format/Info                      : Digital Theater Systems
Codec ID                         : A_DTS
Duration                         : 1h 26mn
Bit rate mode                    : Constant
Bit rate                         : 1 510 Kbps
Channel(s)                       : 6 channels
Channel positions                : Front: L C R, Side: L R, LFE
Sampling rate                    : 48.0 KHz
Bit depth                        : 24 bits
Stream size                      : 938 MiB (21%)
Title                            : Open House 2010 DTS-HD Core_1536kbps
Language                         : English


 
http://www.imdb.com/title/tt1448762/